<?xml version="1.0" encoding="UTF-8"?>
<svg width="91px" height="91px" viewBox="0 0 91 91" version="1.1" xmlns="http://www.w3.org/2000/svg" xmlns:xlink="http://www.w3.org/1999/xlink">
    <title>AD122BF5-E395-4B64-9F27-B8C549A108DD</title>
    <g id="Sprint-1" stroke="none" stroke-width="1" fill="none" fill-rule="evenodd">
        <g id="0.0_Splash-Screen" transform="translate(-142.000000, -361.000000)">
            <g id="Group-2-Copy-2" transform="translate(142.000000, 361.000000)">
                <path d="M73.6411765,9.36391696 C70.4294178,9.36391696 67.2686394,9.23616214 64.107861,9.41501888 C62.3235506,9.51722273 60.4372796,9.79828333 58.8314003,10.5392613 C54.7019962,12.4044816 51.8470996,15.572801 51.5921981,20.2741782 C51.3118065,25.1288612 53.2235676,29.0637095 57.5059125,31.6443568 C59.4941441,32.845252 61.7372772,33.0241088 63.9549201,33.1007617 C67.0647182,33.2029655 70.2000065,33.1263126 73.3098046,33.1263126 C72.8254918,36.320183 69.8431444,39.4118496 66.4784448,40.1783785 C65.305898,40.4338881 64.0823708,40.5871939 62.8588437,40.5871939 C47.8451463,40.6127448 32.8314488,40.6127448 17.8177514,40.6127448 C11.5471749,40.6127448 7.2393398,44.8797557 7.2393398,51.1397416 C7.21384965,60.4913941 7.31581024,69.8430466 7.1883595,79.1946991 C7.11188906,84.8925639 9.25306153,88.9040651 14.7844237,90.9225912 C12.2099187,90.9225912 9.63541375,91.1269989 7.08639891,90.8714892 C3.51777812,90.5393267 0.688371645,87.4732111 0.458960309,83.8449744 C0.255039121,80.8555117 0.28052927,77.8404981 0.28052927,74.8254844 C0.178568676,53.0305129 0.10209823,31.2355414 0,9.44056985 C-0.0253525119,3.20613485 3.49228797,0.906548171 8.41188663,0.165570241 C9.83933494,-0.064388427 11.3177635,0.0122644623 12.7961922,0.0122644623 C29.7216507,0.0633663885 46.6216192,0.114468315 63.5470777,0.165570241 C68.4156961,0.191121204 72.7745115,3.81935796 73.6666667,8.59738806 C73.6666667,8.80179577 73.6411765,9.00620347 73.6411765,9.36391696 Z" id="Path-Copy-25" fill="#8C363C"></path>
                <path d="M91,10.8333333 C89.2585125,7.8697318 84.2864397,8.56704981 84.2864397,8.56704981 L84.2864397,7.94444444 C83.7564217,3.43678161 81.6111111,0.124521073 76.9166667,0 L82.8478196,0.0747126437 C88.3499104,0.27394636 90.8485663,3.36206897 90.9747611,7.64559387 L91,10.8333333 Z" id="Path-Copy-26" fill="#243E67"></path>
                <path d="M85.2871411,12.0620349 L84.5340824,12.0364555 C83.9627965,12.0364555 83.3915106,12.0364555 82.8202247,12.0364555 C78.3278402,11.9597172 73.8094881,11.8573995 69.3171036,11.9597172 L65.5518102,11.9341378 C60.4881398,11.9341378 56.3333333,16.103585 56.3333333,21.0915739 C56.3333333,26.0795629 60.0986267,29.9932158 65.1622971,29.9932158 L70.0961298,29.9932158 C74.328839,30.0187952 78.5875156,30.0443747 82.8202247,29.9676364 C85.6506866,29.9164775 88.6109863,30.1978512 90.9480649,32.5 C90.9480649,32.5 90.9740325,22.8053958 91,18.5592103 C91,18.2266777 91,17.945304 91,17.6895097 C90.6104869,13.3410065 87.5463171,12.0876144 85.2871411,12.0620349 Z M67.9667915,25.5423949 C65.2661673,25.5423949 63.0848939,23.3937227 63.0848939,20.7334619 C63.0848939,18.0732011 65.2661673,15.924529 67.9667915,15.924529 C70.6674157,15.924529 72.8486891,18.0732011 72.8486891,20.7334619 C72.8486891,23.3937227 70.6674157,25.5423949 67.9667915,25.5423949 Z" id="Shape-Copy-9" fill="#243E67"></path>
                <path d="M90.8973067,74.7526606 C90.9486533,63.326832 90.9743267,51.8756127 91,40.4497841 C91,39.9419695 90.9743267,39.4341549 90.8973067,38.9517311 C90.8973067,38.8247774 90.8716334,38.7232145 90.8716334,38.5962608 L90.8716334,38.5962608 L90.5635535,37.4282872 C90.5635535,37.4282872 90.5635535,37.4282872 90.5635535,37.4282872 L90.4608601,36.9966448 C90.3838402,36.793519 90.2811469,36.5903931 90.1527802,36.3872673 C90.1527802,36.3618766 90.1271069,36.3364858 90.1271069,36.3364858 C90.1271069,36.3364858 90.1271069,36.3364858 90.1271069,36.3364858 C89.1515205,34.7114791 87.5341009,33.3403797 84.0682019,33.6196777 C84.0682019,33.6196777 84.0682019,33.6196777 84.0682019,33.6196777 C84.0682019,33.6196777 84.0425286,33.6196777 84.0425286,33.6196777 C84.0425286,36.4634395 84.1195485,38.7993867 84.0168552,41.1353338 C83.9655086,42.3286982 83.7857953,43.5728439 83.3750221,44.6646453 C81.7576025,48.8033344 78.0863168,51.2154537 73.5934847,51.2154537 C58.0611223,51.2408445 42.5544331,51.2408445 27.0220707,51.2916259 C21.9130787,51.3170167 17.5229399,55.4049242 17.4202466,60.4068981 C17.29188,67.5163025 17.3175533,74.625707 17.4202466,81.7351114 C17.4972666,86.6609131 21.8874054,90.8503835 26.8680307,90.8757743 C37.1630346,90.9519465 47.4580385,90.9519465 57.7530423,90.9773372 C66.1225467,90.9773372 74.4920511,91.0535094 82.8872289,90.9265557 C87.2516943,90.8757743 90.6662468,87.422635 90.84596,83.1062108 C90.92298,81.3288597 90.92298,79.5515086 90.9486533,77.7741575 C90.9486533,77.6979853 90.9743267,77.6218131 90.9743267,77.5456409 C91,77.0632171 90.9743267,76.4030581 90.9486533,75.7428991 C90.8973067,75.4382103 90.8973067,75.1081308 90.8973067,74.7526606 Z" id="Path-Copy-27" fill="#243E67"></path>
            </g>
        </g>
    </g>
</svg>